<svg width="100%" height="100%" viewBox="0 0 92 33" fill="none" xmlns="http://www.w3.org/2000/svg">
<g opacity="0.54">
<path fill-rule="evenodd" clip-rule="evenodd" d="M9.6 5.49951C4.07927 6.92045 0 11.932 0 17.8963C0 24.9655 5.73076 30.6963 12.8 30.6963C17.891 30.6963 22.2878 27.7241 24.3499 23.4203C22.7906 24.7167 20.7863 25.4963 18.6 25.4963C13.6294 25.4963 9.6 21.4668 9.6 16.4963V5.49951Z"  style="fill: #C15EF9"/>
<path d="M0.00274117 5.70234C0.00122802 4.81762 0.718014 4.09961 1.60274 4.09961H8C8.88366 4.09961 9.6 4.81595 9.6 5.69961V18.6996H0.0249705L0.00274117 5.70234Z"  style="fill: #C15EF9"/>
</g>
<path fill-rule="evenodd" clip-rule="evenodd" d="M16.0018 3.65186C22.7921 4.6451 28 10.3771 28 17.2996C28 24.9211 21.6872 31.0996 13.9 31.0996C7.96596 31.0996 2.8881 27.5119 0.807333 22.4318C2.41745 23.816 4.51192 24.6526 6.80179 24.6526C11.8828 24.6526 16.0018 20.5336 16.0018 15.4526V3.65186Z"  style="fill: #C15EF9"/>
<path d="M27.9971 1.90271C27.9987 1.01792 27.2819 0.299805 26.3971 0.299805H17.6C16.7163 0.299805 16 1.01615 16 1.8998V17.4998H27.9688L27.9971 1.90271Z"  style="fill: #C15EF9"/>
<path d="M45.8331 30.2983C44.2422 30.2983 42.8253 30.0249 41.5824 29.478C40.3466 28.924 39.37 28.1641 38.6527 27.1982C37.9425 26.2251 37.5767 25.103 37.5554 23.8317H42.2003C42.2287 24.3643 42.4027 24.8331 42.7223 25.2379C43.049 25.6357 43.4822 25.9446 44.022 26.1648C44.5618 26.3849 45.169 26.495 45.8438 26.495C46.5469 26.495 47.1683 26.3707 47.7081 26.1222C48.2479 25.8736 48.6705 25.5291 48.9759 25.0888C49.2813 24.6484 49.4339 24.1406 49.4339 23.5653C49.4339 22.983 49.2706 22.468 48.9439 22.0206C48.6243 21.5661 48.1626 21.2109 47.5589 20.9553C46.9624 20.6996 46.2521 20.5717 45.4283 20.5717H43.3935V17.1839H45.4283C46.1243 17.1839 46.7386 17.0632 47.2713 16.8217C47.8111 16.5803 48.2301 16.2464 48.5284 15.8203C48.8267 15.3871 48.9759 14.8828 48.9759 14.3075C48.9759 13.7607 48.8445 13.2813 48.5817 12.8693C48.326 12.4503 47.9638 12.1236 47.495 11.8892C47.0334 11.6548 46.4936 11.5376 45.8757 11.5376C45.2507 11.5376 44.679 11.6513 44.1605 11.8786C43.642 12.0987 43.2266 12.4148 42.9141 12.8267C42.6016 13.2386 42.4347 13.7216 42.4134 14.2756H37.9922C38.0135 13.0185 38.3722 11.9105 39.0682 10.9517C39.7642 9.9929 40.7017 9.24361 41.8807 8.70383C43.0668 8.15696 44.4055 7.88352 45.897 7.88352C47.4027 7.88352 48.7202 8.15696 49.8494 8.70383C50.9787 9.25071 51.8558 9.98935 52.4808 10.9197C53.1129 11.843 53.4254 12.88 53.4183 14.0305C53.4254 15.2521 53.0455 16.2713 52.2784 17.0881C51.5185 17.9048 50.5277 18.4233 49.3061 18.6435V18.8139C50.9112 19.0199 52.1328 19.5774 52.9709 20.4865C53.8161 21.3885 54.2351 22.5178 54.228 23.8743C54.2351 25.1172 53.8764 26.2216 53.152 27.1875C52.4347 28.1534 51.4439 28.9134 50.1797 29.4673C48.9155 30.0213 47.4666 30.2983 45.8331 30.2983ZM66.0985 30.4794C64.2662 30.4723 62.6895 30.0213 61.3684 29.1264C60.0545 28.2315 59.0424 26.9354 58.3322 25.2379C57.6291 23.5405 57.2811 21.4986 57.2882 19.1122C57.2882 16.733 57.6397 14.7053 58.3429 13.0291C59.0531 11.353 60.0652 10.0781 61.3791 9.20455C62.7001 8.32386 64.2733 7.88352 66.0985 7.88352C67.9238 7.88352 69.4934 8.32386 70.8074 9.20455C72.1284 10.0852 73.144 11.3636 73.8542 13.0398C74.5645 14.7088 74.916 16.733 74.9089 19.1122C74.9089 21.5057 74.5538 23.5511 73.8436 25.2486C73.1404 26.946 72.1319 28.2422 70.818 29.1371C69.5041 30.032 67.9309 30.4794 66.0985 30.4794ZM66.0985 26.6548C67.3485 26.6548 68.3464 26.0263 69.0922 24.7692C69.8379 23.5121 70.2072 21.6264 70.2001 19.1122C70.2001 17.4574 70.0297 16.0795 69.6887 14.9787C69.3549 13.8778 68.8791 13.0504 68.2612 12.4964C67.6504 11.9425 66.9295 11.6655 66.0985 11.6655C64.8556 11.6655 63.8613 12.2869 63.1156 13.5298C62.3699 14.7727 61.9934 16.6335 61.9863 19.1122C61.9863 20.7884 62.1532 22.1875 62.487 23.3097C62.8279 24.4247 63.3074 25.2628 63.9252 25.8239C64.5431 26.3778 65.2676 26.6548 66.0985 26.6548ZM87.6903 8.18182V30H83.0774V12.5604H82.9496L77.9531 15.6925V11.6016L83.3544 8.18182H87.6903Z" style="fill: #ffffff"/>
</svg>
